<svg xmlns="http://www.w3.org/2000/svg" version="1.1" xmlns:xlink="http://www.w3.org/1999/xlink" xmlns:svgjs="http://svgjs.dev/svgjs" viewBox="0 0 1422 800"><defs><linearGradient x1="50%" y1="0%" x2="50%" y2="100%" id="oooscillate-grad"><stop stop-color="hsl(30, 100%, 50%)" stop-opacity="1" offset="0%"></stop><stop stop-color="hsl(50, 100%, 70%)" stop-opacity="1" offset="100%"></stop></linearGradient></defs><g stroke-width="3" stroke="url(#oooscillate-grad)" fill="none" stroke-linecap="round"><path d="M 0 -8 Q 355.5 170 711 400 Q 1066.5 630 1422 -8"></path><path d="M 0 -7 Q 355.5 170 711 400 Q 1066.5 630 1422 -7"></path><path d="M 0 -6 Q 355.5 170 711 400 Q 1066.5 630 1422 -6"></path><path d="M 0 -5 Q 355.5 170 711 400 Q 1066.5 630 1422 -5"></path><path d="M 0 -4 Q 355.5 170 711 400 Q 1066.5 630 1422 -4"></path><path d="M 0 -3 Q 355.5 170 711 400 Q 1066.5 630 1422 -3"></path><path d="M 0 -2 Q 355.5 170 711 400 Q 1066.5 630 1422 -2"></path></g></svg>